<svg width="73" height="40" fill="none" xmlns="http://www.w3.org/2000/svg"><g clip-path="url(#a)" fill="#fff"><path d="M14.054 20.758c.127 0 .255-.005.38-.015a7.925 7.925 0 0 1-6.48 3.366C3.562 24.109 0 20.518 0 16.086c0-4.43 3.561-8.022 7.955-8.022 2.718 0 5.118 1.376 6.553 3.474a4.543 4.543 0 0 0-3.476 1.124 4.544 4.544 0 0 0-3.077-1.196c-2.531 0-4.584 2.069-4.584 4.621 0 2.553 2.052 4.622 4.584 4.622a4.544 4.544 0 0 0 3.021-1.146 4.544 4.544 0 0 0 3.078 1.196Z"/><path d="M17.092 16.137a3.068 3.068 0 0 1-1.677 2.74 3.012 3.012 0 0 1-3.463-.528 3.067 3.067 0 0 1-.937-2.212c0-.87.374-1.688.973-2.248a3.014 3.014 0 0 1 3.472-.47 3.067 3.067 0 0 1 1.634 2.717l-.002.001ZM4.55 31.11l.436-.994c.378.225.882.37 1.323.37.384 0 .52-.082.52-.22 0-.508-2.215-.098-2.215-1.606 0-.75.624-1.362 1.866-1.362.538 0 1.094.115 1.512.352l-.406.987c-.396-.202-.768-.3-1.117-.3-.395 0-.521.116-.521.255 0 .485 2.216.08 2.216 1.57 0 .74-.624 1.363-1.867 1.363-.67 0-1.346-.168-1.747-.416ZM17.393 28.447h-1.175V27.39h3.7v1.057h-1.175v2.985h-1.351v-2.985ZM28.191 29.613V27.39h1.352v2.183c0 .618.234.849.612.849s.613-.231.613-.849V27.39h1.328v2.223c0 1.213-.721 1.912-1.953 1.912-1.232 0-1.953-.699-1.953-1.912h.001ZM40.73 27.39h1.977c1.34 0 2.262.769 2.262 2.022 0 1.253-.922 2.021-2.262 2.021H40.73V27.39Zm1.92 2.98c.566 0 .956-.34.956-.958 0-.618-.39-.959-.957-.959h-.567v1.917h.567ZM53.476 27.39h1.351v4.043h-1.351V27.39ZM63.335 29.412c0-1.225.957-2.114 2.262-2.114 1.306 0 2.262.89 2.262 2.114 0 1.223-.956 2.113-2.262 2.113-1.305 0-2.262-.889-2.262-2.113Zm3.161 0c0-.63-.4-1.01-.899-1.01-.498 0-.899.38-.899 1.01 0 .629.4 1.01.9 1.01.497 0 .898-.381.898-1.01ZM31.1 20.794h-6.448l-1.198 2.987h-4.4l6.73-15.375h4.248l6.752 15.375h-4.487L31.1 20.794Zm-1.264-3.207-1.96-4.92-1.96 4.92h3.92ZM41.292 22.397l1.416-3.206c1.35.9 3.267 1.515 5.032 1.515 1.764 0 2.483-.505 2.483-1.252 0-2.438-8.669-.66-8.669-6.37 0-2.746 2.221-4.987 6.752-4.987 1.982 0 4.03.462 5.533 1.34l-1.329 3.229c-1.46-.791-2.896-1.187-4.225-1.187-1.808 0-2.462.615-2.462 1.384 0 2.35 8.647.594 8.647 6.26 0 2.68-2.221 4.965-6.752 4.965-2.505 0-4.988-.68-6.426-1.691ZM63.835 11.854h-4.683V8.406H72.81v3.448h-4.661V23.78h-4.312V11.854h-.001Z"/></g><defs><clipPath id="a"><path fill="#fff" transform="translate(0 8.064)" d="M0 0h72.808v23.46H0z"/></clipPath></defs></svg>